<?xml version="1.0" encoding="UTF-8"?>
<svg id="Layer_1" data-name="Layer 1" xmlns="http://www.w3.org/2000/svg" viewBox="0 0 38.27 38.27">
  <defs>
    <style>
      .cls-1 {
        fill: #6da8db;
        stroke-width: 0px;
      }
    </style>
  </defs>
  <path class="cls-1" d="M19.13,1.57C9.43,1.57,1.57,9.43,1.57,19.13s7.86,17.56,17.56,17.56,17.56-7.86,17.56-17.56S28.83,1.57,19.13,1.57ZM21.12,27.94c0,.36-.29.65-.65.65h-2.67c-.36,0-.65-.29-.65-.65v-13.01c0-.36.29-.65.65-.65h2.67c.36,0,.65.29.65.65v13.01ZM19.13,12.3c-1.1,0-1.99-.89-1.99-1.99s.89-1.99,1.99-1.99,1.99.89,1.99,1.99-.89,1.99-1.99,1.99Z"/>
</svg>